# xmcd CD database file
# Copyright (C) 1996 Ti Kan
#
# Track frame offsets:
#  150
#  16678
#  34348
#  50043
#  68270
#  84975
#  95850
#  112428
#  125238
#  139785
#  153858
#  174798
#  187980
#
# Disc length: 2661 seconds
#
# Revision: 2
# Processed by: cddbd v1.4b41PL1 Copyright (c) Steve Scherf et al.
# Submitted via: CDWizzard Release:4.12
#
DISCID=ab0a630d
DTITLE=Albert Ammons - Master Of Boogie
DYEAR=1900
DGENRE=
TTITLE0=Bass Goin' Crazy
TTITLE1=Suitcase Blues
TTITLE2=Boogie Woogie Stomp
TTITLE3=Chicago In Mind
TTITLE4=Boogie Woogie Blues
TTITLE5=Shout For Joy
TTITLE6=Pinetop Boogie Woogie
TTITLE7=Nagasaki
TTITLE8=Mile-Or-Mo-Bird Rag
TTITLE9=Mile-Or-Mo Bird Rag (Alt.)
TTITLE10=Twos And Fews
TTITLE11=Cavalcade Of Boogie
TTITLE12=Done Got Wise
EXTD=
EXTT0=
EXTT1=
EXTT2=
EXTT3=
EXTT4=
EXTT5=
EXTT6=
EXTT7=
EXTT8=
EXTT9=
EXTT10=
EXTT11=
EXTT12=
PLAYORDER=
